<mxfile host="app.diagrams.net" modified="2024-06-11T13:53:05.980Z" agent="Mozilla/5.0 (X11; Linux x86_64; rv:109.0) Gecko/20100101 Firefox/115.0" etag="NOhYuTeDl4qUjcm_CW7d" version="24.4.4" type="github">
  <diagram name="Page-1" id="Q5-XCbyxNqVeQDABKHqj">
    <mxGraphModel dx="1158" dy="597" grid="1" gridSize="10" guides="1" tooltips="1" connect="1" arrows="1" fold="1" page="1" pageScale="1" pageWidth="850" pageHeight="1100" math="0" shadow="0">
      <root>
        <mxCell id="0" />
        <mxCell id="1" parent="0" />
        <mxCell id="nZX18deOuYAMsA4xDCGx-1" value="&lt;b&gt;&lt;font style=&quot;font-size: 15px;&quot;&gt;DE2-70&lt;/font&gt;&lt;/b&gt;" style="rounded=1;whiteSpace=wrap;html=1;fillColor=#dae8fc;strokeColor=#6c8ebf;" vertex="1" parent="1">
          <mxGeometry x="360" y="260" width="460" height="160" as="geometry" />
        </mxCell>
        <mxCell id="nZX18deOuYAMsA4xDCGx-5" value="" style="edgeStyle=orthogonalEdgeStyle;rounded=0;orthogonalLoop=1;jettySize=auto;html=1;" edge="1" parent="1" source="nZX18deOuYAMsA4xDCGx-2" target="nZX18deOuYAMsA4xDCGx-1">
          <mxGeometry relative="1" as="geometry" />
        </mxCell>
        <mxCell id="nZX18deOuYAMsA4xDCGx-2" value="Hex values" style="rounded=1;whiteSpace=wrap;html=1;" vertex="1" parent="1">
          <mxGeometry x="180" y="310" width="120" height="60" as="geometry" />
        </mxCell>
        <mxCell id="nZX18deOuYAMsA4xDCGx-4" value="" style="edgeStyle=orthogonalEdgeStyle;rounded=0;orthogonalLoop=1;jettySize=auto;html=1;" edge="1" parent="1" source="nZX18deOuYAMsA4xDCGx-3" target="nZX18deOuYAMsA4xDCGx-2">
          <mxGeometry relative="1" as="geometry" />
        </mxCell>
        <mxCell id="nZX18deOuYAMsA4xDCGx-3" value="BMP file" style="rounded=1;whiteSpace=wrap;html=1;" vertex="1" parent="1">
          <mxGeometry x="180" y="190" width="120" height="60" as="geometry" />
        </mxCell>
        <mxCell id="nZX18deOuYAMsA4xDCGx-7" value="&lt;div&gt;Increase&lt;/div&gt;&lt;div&gt;brightness&lt;/div&gt;&lt;div&gt;button&lt;br&gt;&lt;/div&gt;" style="rounded=1;whiteSpace=wrap;html=1;" vertex="1" parent="1">
          <mxGeometry x="390" y="460" width="70" height="60" as="geometry" />
        </mxCell>
        <mxCell id="nZX18deOuYAMsA4xDCGx-8" value="&lt;div&gt;Decrease&lt;br&gt;&lt;/div&gt;&lt;div&gt;brightness&lt;/div&gt;&lt;div&gt;button&lt;br&gt;&lt;/div&gt;" style="rounded=1;whiteSpace=wrap;html=1;" vertex="1" parent="1">
          <mxGeometry x="500" y="460" width="70" height="60" as="geometry" />
        </mxCell>
        <mxCell id="nZX18deOuYAMsA4xDCGx-9" value="&lt;div&gt;Invert&lt;/div&gt;&lt;div&gt;button&lt;br&gt;&lt;/div&gt;" style="rounded=1;whiteSpace=wrap;html=1;" vertex="1" parent="1">
          <mxGeometry x="610" y="460" width="70" height="60" as="geometry" />
        </mxCell>
        <mxCell id="nZX18deOuYAMsA4xDCGx-10" value="&lt;div&gt;Threshold&lt;/div&gt;&lt;div&gt;button&lt;br&gt;&lt;/div&gt;" style="rounded=1;whiteSpace=wrap;html=1;" vertex="1" parent="1">
          <mxGeometry x="720" y="460" width="70" height="60" as="geometry" />
        </mxCell>
        <mxCell id="nZX18deOuYAMsA4xDCGx-13" style="edgeStyle=orthogonalEdgeStyle;rounded=0;orthogonalLoop=1;jettySize=auto;html=1;entryX=0.142;entryY=1.005;entryDx=0;entryDy=0;entryPerimeter=0;" edge="1" parent="1" source="nZX18deOuYAMsA4xDCGx-7" target="nZX18deOuYAMsA4xDCGx-1">
          <mxGeometry relative="1" as="geometry" />
        </mxCell>
        <mxCell id="nZX18deOuYAMsA4xDCGx-14" style="edgeStyle=orthogonalEdgeStyle;rounded=0;orthogonalLoop=1;jettySize=auto;html=1;entryX=0.38;entryY=1;entryDx=0;entryDy=0;entryPerimeter=0;" edge="1" parent="1" source="nZX18deOuYAMsA4xDCGx-8" target="nZX18deOuYAMsA4xDCGx-1">
          <mxGeometry relative="1" as="geometry" />
        </mxCell>
        <mxCell id="nZX18deOuYAMsA4xDCGx-15" style="edgeStyle=orthogonalEdgeStyle;rounded=0;orthogonalLoop=1;jettySize=auto;html=1;entryX=0.62;entryY=1.009;entryDx=0;entryDy=0;entryPerimeter=0;" edge="1" parent="1" source="nZX18deOuYAMsA4xDCGx-9" target="nZX18deOuYAMsA4xDCGx-1">
          <mxGeometry relative="1" as="geometry" />
        </mxCell>
        <mxCell id="nZX18deOuYAMsA4xDCGx-16" style="edgeStyle=orthogonalEdgeStyle;rounded=0;orthogonalLoop=1;jettySize=auto;html=1;entryX=0.859;entryY=1.011;entryDx=0;entryDy=0;entryPerimeter=0;" edge="1" parent="1" source="nZX18deOuYAMsA4xDCGx-10" target="nZX18deOuYAMsA4xDCGx-1">
          <mxGeometry relative="1" as="geometry" />
        </mxCell>
        <mxCell id="nZX18deOuYAMsA4xDCGx-17" value="&lt;div&gt;Increase&lt;/div&gt;&lt;div&gt;brightness&lt;/div&gt;&lt;div&gt;LED&lt;br&gt;&lt;/div&gt;" style="rounded=1;whiteSpace=wrap;html=1;fillColor=#f8cecc;strokeColor=#b85450;" vertex="1" parent="1">
          <mxGeometry x="390" y="160" width="70" height="60" as="geometry" />
        </mxCell>
        <mxCell id="nZX18deOuYAMsA4xDCGx-18" value="&lt;div&gt;Increase&lt;/div&gt;&lt;div&gt;brightness&lt;/div&gt;&lt;div&gt;LED&lt;br&gt;&lt;/div&gt;" style="rounded=1;whiteSpace=wrap;html=1;fillColor=#f8cecc;strokeColor=#b85450;" vertex="1" parent="1">
          <mxGeometry x="500" y="160" width="70" height="60" as="geometry" />
        </mxCell>
        <mxCell id="nZX18deOuYAMsA4xDCGx-19" value="&lt;div&gt;Increase&lt;/div&gt;&lt;div&gt;brightness&lt;/div&gt;&lt;div&gt;LED&lt;br&gt;&lt;/div&gt;" style="rounded=1;whiteSpace=wrap;html=1;fillColor=#f8cecc;strokeColor=#b85450;" vertex="1" parent="1">
          <mxGeometry x="610" y="160" width="70" height="60" as="geometry" />
        </mxCell>
        <mxCell id="nZX18deOuYAMsA4xDCGx-20" value="&lt;div&gt;Increase&lt;/div&gt;&lt;div&gt;brightness&lt;/div&gt;&lt;div&gt;LED&lt;br&gt;&lt;/div&gt;" style="rounded=1;whiteSpace=wrap;html=1;fillColor=#f8cecc;strokeColor=#b85450;" vertex="1" parent="1">
          <mxGeometry x="720" y="160" width="70" height="60" as="geometry" />
        </mxCell>
        <mxCell id="nZX18deOuYAMsA4xDCGx-21" style="edgeStyle=orthogonalEdgeStyle;rounded=0;orthogonalLoop=1;jettySize=auto;html=1;entryX=0.142;entryY=0;entryDx=0;entryDy=0;entryPerimeter=0;endArrow=none;endFill=0;startArrow=classic;startFill=1;" edge="1" parent="1" source="nZX18deOuYAMsA4xDCGx-17" target="nZX18deOuYAMsA4xDCGx-1">
          <mxGeometry relative="1" as="geometry" />
        </mxCell>
        <mxCell id="nZX18deOuYAMsA4xDCGx-22" style="edgeStyle=orthogonalEdgeStyle;rounded=0;orthogonalLoop=1;jettySize=auto;html=1;entryX=0.381;entryY=-0.007;entryDx=0;entryDy=0;entryPerimeter=0;endArrow=none;endFill=0;startArrow=classic;startFill=1;" edge="1" parent="1" source="nZX18deOuYAMsA4xDCGx-18" target="nZX18deOuYAMsA4xDCGx-1">
          <mxGeometry relative="1" as="geometry" />
        </mxCell>
        <mxCell id="nZX18deOuYAMsA4xDCGx-23" style="edgeStyle=orthogonalEdgeStyle;rounded=0;orthogonalLoop=1;jettySize=auto;html=1;entryX=0.62;entryY=-0.007;entryDx=0;entryDy=0;entryPerimeter=0;endArrow=none;endFill=0;startArrow=classic;startFill=1;" edge="1" parent="1" source="nZX18deOuYAMsA4xDCGx-19" target="nZX18deOuYAMsA4xDCGx-1">
          <mxGeometry relative="1" as="geometry" />
        </mxCell>
        <mxCell id="nZX18deOuYAMsA4xDCGx-24" style="edgeStyle=orthogonalEdgeStyle;rounded=0;orthogonalLoop=1;jettySize=auto;html=1;entryX=0.859;entryY=-0.006;entryDx=0;entryDy=0;entryPerimeter=0;endArrow=none;endFill=0;startArrow=classic;startFill=1;" edge="1" parent="1" source="nZX18deOuYAMsA4xDCGx-20" target="nZX18deOuYAMsA4xDCGx-1">
          <mxGeometry relative="1" as="geometry" />
        </mxCell>
      </root>
    </mxGraphModel>
  </diagram>
</mxfile>
